<svg xmlns="http://www.w3.org/2000/svg" x="0px" y="0px"
width="50" height="50"
viewBox="0,0,256,256"
style="fill:#000000;">
<g fill="#ffffff" fill-rule="nonzero" stroke="none" stroke-width="1" stroke-linecap="butt" stroke-linejoin="miter" stroke-miterlimit="10" stroke-dasharray="" stroke-dashoffset="0" font-family="none" font-weight="none" font-size="none" text-anchor="none" style="mix-blend-mode: normal"><g transform="scale(5.12,5.12)"><path d="M0,14.00781h9.73438v1.37109h-9.73437zM21.58984,14.00781h-10.46094v1.37109h13.94531l-0.21875,-0.21094l-0.28125,-0.20312l-0.29297,-0.20312l-0.32031,-0.16797l-0.31641,-0.15234l-0.32031,-0.12891l-0.34375,-0.11328l-0.34766,-0.07422l-0.33984,-0.0625l-0.33984,-0.05469zM27.81641,14.00781v1.37109h8.39844l-0.48437,-1.37109zM42.16016,14.00781l-0.48437,1.37109h8.32422v-1.37109zM0,16.67578v1.34766h9.73438v-1.34766zM2.78125,19.31641v1.37891h4.16016v-1.37891zM2.78125,21.96875v1.38281h4.16016v-1.38281zM26.05859,16.67578h-14.92969v1.34766h15.44922l-0.16406,-0.54297l-0.12891,-0.35547l-0.15234,-0.32031zM13.91016,19.31641v1.37891h4.15625v-1.37891zM26.70703,19.31641h-4.45312v1.37891h4.22656l0.03906,-0.11719l0.08203,-0.33984l0.05469,-0.34766l0.03906,-0.35547zM25.89063,21.96875h-11.98047v1.38281h10.66406l0.23438,-0.15625l0.26563,-0.23047l0.24219,-0.25391l0.22656,-0.26562l0.21875,-0.28125zM27.81641,16.67578v1.34766h9.32813l-0.48437,-1.34766zM50,16.67578h-8.77344l-0.46875,1.34766h9.24219zM30.60156,19.31641v1.37891h7.46094l-0.48437,-1.37891zM47.28906,19.31641h-6.99219l-0.47656,1.37891h7.46875zM35.21094,23.34766h7.48438l0.42188,-1.22656v1.22656h4.17188v-1.37891h-7.91016l-0.43359,1.22656l-0.43359,-1.22656h-7.91016v1.37891h4.17188v-1.23437zM0,32.60156v1.39063h9.73438v-1.39062zM0,29.92969v1.39063h9.73438v-1.39062zM2.78125,24.63672v1.36719h4.16016v-1.36719zM2.78125,27.28906v1.37891h4.16016v-1.37891zM24.57422,24.63672h-10.66406v1.36719h11.98047l-0.12891,-0.16406l-0.21875,-0.28125l-0.22656,-0.26953l-0.24219,-0.25781l-0.26953,-0.22656zM13.91016,27.28906v1.37891h4.15625v-1.37891zM26.48047,27.28906h-4.22656v1.37891h4.45313l-0.00781,-0.20703l-0.04297,-0.35547l-0.05078,-0.33984l-0.08594,-0.34375zM26.57813,29.92969h-15.44922v1.39063h14.92969l0.07422,-0.12109l0.15234,-0.32422l0.12891,-0.33203l0.10547,-0.33203zM25.07422,32.60156h-13.94531v1.39063h10.41016l0.35938,-0.01562l0.35547,-0.03906l0.33203,-0.0625l0.34375,-0.07422l0.34766,-0.12109l0.31641,-0.12109l0.32031,-0.15625l0.32031,-0.16797l0.28906,-0.19141l0.28516,-0.21875zM30.60156,24.63672v1.36719h4.17188v-1.36719zM41.76563,26.00391l0.48047,-1.36719h-6.60547l0.46875,1.36719zM43.11719,24.63672v1.36719h4.17188v-1.36719zM30.60156,27.28906v1.37891h4.17188v-1.37891zM41.34375,27.28906h-4.79687l0.47266,1.37891h3.85156zM43.11719,27.28906v1.37891h4.17188v-1.37891zM27.81641,29.92969v1.39063h6.95703v-1.39062zM40.43359,29.92969h-2.98437l0.47656,1.39063h2.03906zM43.11719,29.92969v1.39063h6.88281v-1.39062zM27.81641,32.60156v1.39063h6.95703v-1.39062zM43.11719,32.60156v1.39063h6.88281v-1.39062zM39.04297,33.99219l0.47656,-1.38672h-1.14844l0.46875,1.38672z"></path></g></g>
</svg>