<svg class="img-fluid" xmlns="http://www.w3.org/2000/svg"  width="48" height="48" viewBox="0 0 5120 5120">

  <g fill="rgb(170,109,241)">
    <g>
      <path d="M 3860 5076 c -219 -96 -339 -176 -490 -323 -114 -113 -114 -113 -1666 -113 -1548 0 -1551 0 -1577 -20 -39 -31 -45 -71 -36 -221 18 -285 78 -516 199 -764 178 -364 475 -664 837 -844 446 -223 998 -251 1473 -74 120 45 261 117 368 188 83 55 83 55 532 -190 270 -148 458 -245 475 -245 21 0 867 440 1001 521 56 34 56 38 51 506 -4 467 -8 501 -73 690 -106 312 -331 590 -619 766 -98 60 -323 157 -364 157 -20 0 -70 -15 -111 -34 z  m 223 -230 c 409 -185 672 -535 727 -969 5 -45 10 -228 10 -408 0 -326 0 -326 -416 -547 -228 -122 -421 -222 -429 -222 -7 0 -193 98 -412 219 -398 218 -398 218 -398 622 1 404 1 404 27 501 82 303 270 562 522 723 69 44 234 125 256 125 8 0 59 -20 113 -44 z  m -1000 -493 c -51 -110 -90 -230 -114 -352 -19 -92 -22 -156 -28 -486 -6 -380 -6 -380 -75 -427 -388 -266 -914 -347 -1384 -212 -583 168 -1022 657 -1147 1278 -13 67 -27 156 -31 199 -7 77 -7 77 1404 77 1411 0 1411 0 1375 -77 z ">
      </path>
      <path d="M 3782 4118 c -40 -29 -280 -312 -293 -346 -21 -55 33 -132 92 -132 50 0 75 20 174 137 87 102 99 113 113 100 38 -32 450 -365 483 -390 64 -48 136 -31 166 40 28 68 18 79 -289 329 -155 126 -299 241 -321 257 -49 33 -84 34 -125 5 z ">
      </path>
      <path d="M3105.937049059755 1165.9957113271232 C 3105.937049059755 1806.0735221620566 2587.0514609762895 2324.959110245522 1946.9736501413563 2324.959110245522 1306.895839306423 2324.959110245522 788.0102512229575 1806.0735221620566 788.0102512229575 1165.9957113271232 788.0102512229575 525.9179004921899 1306.895839306423 7.03231240872447 1946.9736501413563 7.03231240872447 2587.0514609762895 7.03231240872447 3105.937049059755 525.9179004921899 3105.937049059755 1165.9957113271232 Z M1812.0 2320.0  M2895.8219455124968 1166.1920211307024 C 2895.8219455124968 642.1548929886414 2471.005917194204 217.3388646703489 1946.9687890521432 217.3388646703489 1422.9316609100822 217.3388646703489 998.1156325917897 642.1548929886414 998.1156325917897 1166.1920211307024 998.1156325917897 1690.2291492727634 1422.9316609100822 2115.045177591056 1946.9687890521432 2115.045177591056 2471.005917194204 2115.045177591056 2895.8219455124968 1690.2291492727634 2895.8219455124968 1166.1920211307024 Z M2040.0 2110.0 ">
      </path>
    </g>
  </g>
</svg>
